# xmcd
#
# Track frame offsets: 
#        150
#        32260
#        44592
#        68647
#        84077
#        100317
#        129162
#        173170
#        189617
#        221177
#        248577
#        262637
#        280192
#        303302
#        317305
#
# Disc length: 4607 seconds
#
# Revision: 0
# Processed by: cddbd v1.5.2PL0 Copyright (c) Steve Scherf et al.
# Submitted via: ExactAudioCopy v1.0b3
#
DISCID=ba11fd0f
DTITLE=Charlie Booty - After Hours with Charlie Booty
DYEAR=1900
DGENRE=
TTITLE0=After Hours
TTITLE1=Buck Boogie
TTITLE2=Euro Blues
TTITLE3=Nashville Blues
TTITLE4=Tennessee Strut
TTITLE5=Gulf Coast Blues
TTITLE6=Uncle Hager Stomp
TTITLE7=Fort Worth Blues
TTITLE8=Uncle Hager's Blues
TTITLE9=Honky Tonk Train Blues
TTITLE10=Jazzman Special
TTITLE11=Clarinet Marmalade
TTITLE12=Stomp De Lowdown
TTITLE13=Dill Picke Drag
TTITLE14=Mush's Blues
EXTD=
EXTT0=
EXTT1=
EXTT2=
EXTT3=
EXTT4=
EXTT5=
EXTT6=
EXTT7=
EXTT8=
EXTT9=
EXTT10=
EXTT11=
EXTT12=
EXTT13=
EXTT14=
PLAYORDER=
